<svg width="100" height="82" viewBox="0 0 100 82" fill="none" xmlns="http://www.w3.org/2000/svg">
<path d="M62.5 50.5625C66.644 50.5625 70.6183 48.9163 73.5485 45.986C76.4788 43.0558 78.125 39.0815 78.125 34.9375C78.125 30.7935 76.4788 26.8192 73.5485 23.889C70.6183 20.9587 66.644 19.3125 62.5 19.3125C58.356 19.3125 54.3817 20.9587 51.4515 23.889C48.5212 26.8192 46.875 30.7935 46.875 34.9375C46.875 39.0815 48.5212 43.0558 51.4515 45.986C54.3817 48.9163 58.356 50.5625 62.5 50.5625Z" fill="black"/>
<path d="M12.5 0.25C9.18479 0.25 6.00537 1.56696 3.66117 3.91117C1.31696 6.25537 0 9.43479 0 12.75L0 69C0 72.3152 1.31696 75.4946 3.66117 77.8388C6.00537 80.183 9.18479 81.5 12.5 81.5H87.5C90.8152 81.5 93.9946 80.183 96.3388 77.8388C98.683 75.4946 100 72.3152 100 69V12.75C100 9.43479 98.683 6.25537 96.3388 3.91117C93.9946 1.56696 90.8152 0.25 87.5 0.25H12.5ZM6.25 12.75C6.25 11.0924 6.90848 9.50268 8.08058 8.33058C9.25268 7.15848 10.8424 6.5 12.5 6.5H25V19H6.25V12.75ZM31.25 75.25V6.5H87.5C89.1576 6.5 90.7473 7.15848 91.9194 8.33058C93.0915 9.50268 93.75 11.0924 93.75 12.75V69C93.75 70.7812 93 72.3938 91.8125 73.5313C88.4375 65.8375 80.1375 56.5 62.5 56.5C43.5188 56.5 35.3438 67.3125 32.5125 75.25H31.25ZM6.25 62.75H25V75.25H12.5C10.8424 75.25 9.25268 74.5915 8.08058 73.4194C6.90848 72.2473 6.25 70.6576 6.25 69V62.75ZM25 56.5H6.25V44H25V56.5ZM25 37.75H6.25V25.25H25V37.75Z" fill="black"/>
</svg>
