<svg width="99" height="100" viewBox="0 0 99 100" fill="none" xmlns="http://www.w3.org/2000/svg">
<path d="M97.1563 40.9875C97.7393 44.3435 98.0299 47.7437 98.025 51.15C98.025 66.3625 92.5875 79.225 83.125 87.9313H83.1375C74.8625 95.575 63.4875 100 50 100C36.7392 100 24.0215 94.7322 14.6447 85.3553C5.26784 75.9785 0 63.2608 0 50C0 36.7392 5.26784 24.0215 14.6447 14.6447C24.0215 5.26784 36.7392 5.50499e-08 50 5.50499e-08C62.4121 -0.145365 74.399 4.5177 83.45 13.0125L69.175 27.2875C64.0149 22.3686 57.1281 19.6749 50 19.7875C36.9563 19.7875 25.875 28.5875 21.925 40.4375C19.8307 46.6469 19.8307 53.3718 21.925 59.5813H21.9437C25.9125 71.4125 36.975 80.2125 50.0188 80.2125C56.7563 80.2125 62.5438 78.4875 67.0313 75.4375H67.0125C69.6182 73.7113 71.8471 71.475 73.5647 68.8637C75.2823 66.2523 76.4531 63.32 77.0063 60.2438H50V40.9937L97.1563 40.9875Z" fill="black"/>
</svg>
