<svg width="18" height="16" viewBox="0 0 18 16" fill="none" xmlns="http://www.w3.org/2000/svg">
<path d="M15.0003 5.90002V11.1519C15.0003 11.6388 14.7695 12.0969 14.3783 12.3867C11.4805 14.5332 7.52 14.5332 4.62223 12.3867C4.231 12.0969 4.00026 11.6388 4.00026 11.1519V6.25M11.0003 4.00002L16.2925 5.61709C16.713 5.74559 17.0003 6.1337 17.0003 6.5734V11.8572M17.0003 13.6905V15M9.9913 7.6532L16.3035 5.44388C17.1964 5.13138 17.1964 3.86867 16.3035 3.55617L9.9913 1.34689C9.3497 1.12233 8.6508 1.12233 8.0092 1.34689L1.69699 3.55617C0.804129 3.86867 0.804129 5.13138 1.69699 5.44388L8.0092 7.6532C8.6508 7.8777 9.3497 7.8777 9.9913 7.6532Z" stroke="black" stroke-width="1.25" stroke-linecap="round"/>
</svg>
