<svg width="24" height="25" viewBox="0 0 24 25" fill="none" xmlns="http://www.w3.org/2000/svg">
<g clip-path="url(#clip0_2_2)">
<path d="M10.57 6.3L13.28 3.58C14.2931 2.56687 15.6672 1.9977 17.1 1.9977C18.5328 1.9977 19.9069 2.56687 20.92 3.58C21.9331 4.59313 22.5023 5.96722 22.5023 7.4C22.5023 8.83278 21.9331 10.2069 20.92 11.22L18.2 13.93" stroke="black" stroke-width="2" stroke-miterlimit="10"/>
<path d="M5.8 11.07L3.08 13.78C2.06687 14.7931 1.4977 16.1672 1.4977 17.6C1.4977 19.0328 2.06687 20.4069 3.08 21.42C4.09313 22.4331 5.46722 23.0023 6.9 23.0023C8.33278 23.0023 9.70687 22.4331 10.72 21.42L13.43 18.7" stroke="black" stroke-width="2" stroke-miterlimit="10"/>
<path d="M16.77 7.73L7.23 17.27" stroke="black" stroke-width="2" stroke-miterlimit="10"/>
</g>
<defs>
<clipPath id="clip0_2_2">
<rect width="24" height="24" fill="white" transform="translate(0 0.5)"/>
</clipPath>
</defs>
</svg>
