<svg width="26" height="26" viewBox="0 0 26 26" fill="none" xmlns="http://www.w3.org/2000/svg">
<path d="M12.9997 17C8.5815 17 4.99978 13.4183 4.99978 9C4.99978 4.58172 8.5815 1 12.9997 1C17.418 1 20.9997 4.58172 20.9997 9C20.9997 13.4183 17.418 17 12.9997 17ZM12.9997 17L17.8556 24.7708C18.4015 25.6445 19.7528 25.2013 19.6752 24.174L19.4787 21.5728C19.4188 20.78 20.2736 20.2459 20.9599 20.6472L23.2117 21.9641C24.1009 22.4843 25.0917 21.464 24.5457 20.5904L19.8765 13.0903M12.9997 17L8.14402 24.7708C7.59809 25.6445 6.24684 25.2013 6.32442 24.174L6.52088 21.5728C6.58074 20.78 5.72602 20.2459 5.03974 20.6472L2.78788 21.9641C1.89857 22.4843 0.907864 21.464 1.4538 20.5904L6.12305 13.0903M15.6664 9C15.6664 10.4728 14.4725 11.6667 12.9997 11.6667C11.5271 11.6667 10.3331 10.4728 10.3331 9C10.3331 7.52724 11.5271 6.33333 12.9997 6.33333C14.4725 6.33333 15.6664 7.52724 15.6664 9Z" stroke="black" stroke-width="1.5" stroke-linecap="round" stroke-linejoin="round"/>
</svg>
