<svg width="64" height="104" viewBox="0 0 64 104" fill="none" xmlns="http://www.w3.org/2000/svg">
<path d="M3.875 42.25C4.7038 42.25 5.49866 42.5924 6.08471 43.2019C6.67076 43.8114 7 44.638 7 45.5V52C7 58.8956 9.63392 65.5088 14.3223 70.3848C19.0107 75.2607 25.3696 78 32 78C38.6304 78 44.9893 75.2607 49.6777 70.3848C54.3661 65.5088 57 58.8956 57 52V45.5C57 44.638 57.3292 43.8114 57.9153 43.2019C58.5013 42.5924 59.2962 42.25 60.125 42.25C60.9538 42.25 61.7487 42.5924 62.3347 43.2019C62.9208 43.8114 63.25 44.638 63.25 45.5V52C63.2501 60.0569 60.3726 67.8267 55.1758 73.8019C49.9789 79.7771 42.8332 83.5318 35.125 84.3375V97.5H53.875C54.7038 97.5 55.4987 97.8424 56.0847 98.4519C56.6708 99.0614 57 99.888 57 100.75C57 101.612 56.6708 102.439 56.0847 103.048C55.4987 103.658 54.7038 104 53.875 104H10.125C9.2962 104 8.50134 103.658 7.91529 103.048C7.32924 102.439 7 101.612 7 100.75C7 99.888 7.32924 99.0614 7.91529 98.4519C8.50134 97.8424 9.2962 97.5 10.125 97.5H28.875V84.3375C21.1668 83.5318 14.0211 79.7771 8.82425 73.8019C3.6274 67.8267 0.749903 60.0569 0.75 52V45.5C0.75 44.638 1.07924 43.8114 1.66529 43.2019C2.25134 42.5924 3.0462 42.25 3.875 42.25Z" fill="black"/>
<path d="M44.5 52C44.5 55.4478 43.183 58.7544 40.8388 61.1924C38.4946 63.6304 35.3152 65 32 65C28.6848 65 25.5054 63.6304 23.1612 61.1924C20.817 58.7544 19.5 55.4478 19.5 52V19.5C19.5 16.0522 20.817 12.7456 23.1612 10.3076C25.5054 7.86964 28.6848 6.5 32 6.5C35.3152 6.5 38.4946 7.86964 40.8388 10.3076C43.183 12.7456 44.5 16.0522 44.5 19.5V52ZM32 0C27.0272 0 22.2581 2.05446 18.7417 5.71142C15.2254 9.36838 13.25 14.3283 13.25 19.5V52C13.25 57.1717 15.2254 62.1316 18.7417 65.7886C22.2581 69.4455 27.0272 71.5 32 71.5C36.9728 71.5 41.7419 69.4455 45.2583 65.7886C48.7746 62.1316 50.75 57.1717 50.75 52V19.5C50.75 14.3283 48.7746 9.36838 45.2583 5.71142C41.7419 2.05446 36.9728 0 32 0Z" fill="black"/>
</svg>
