<svg width="24" height="20" viewBox="0 0 100 100" fill="none" xmlns="http://www.w3.org/2000/svg">
<g clip-path="url(#clip0_1_2)">
<path d="M17.9125 92.8125C17.425 95.5875 20.1625 97.7562 22.575 96.5187L50.0125 82.4187L77.4437 96.5187C79.8562 97.7562 82.5938 95.5875 82.1063 92.8187L76.9188 63.2562L98.9313 42.2812C100.994 40.3187 99.9312 36.7313 97.1687 36.3438L66.5563 31.9938L52.9063 4.95C52.6462 4.4018 52.236 3.93864 51.7232 3.61433C51.2104 3.29001 50.6161 3.11785 50.0094 3.11785C49.4026 3.11785 48.8083 3.29001 48.2956 3.61433C47.7828 3.93864 47.3725 4.4018 47.1125 4.95L33.4625 32L2.85 36.35C0.0937499 36.7375 -0.975 40.325 1.08125 42.2875L23.1 63.2625L17.9125 92.825V92.8125ZM48.5687 75.5187L25.5313 87.3562L29.8687 62.625C29.9704 62.0557 29.9306 61.4702 29.753 60.9198C29.5753 60.3695 29.2653 59.8712 28.85 59.4688L10.6875 42.1563L36.0125 38.5563C36.5369 38.4771 37.0343 38.2719 37.4621 37.9584C37.8899 37.645 38.2353 37.2324 38.4688 36.7563L50 13.8938L61.5438 36.7563C61.7772 37.2324 62.1226 37.645 62.5504 37.9584C62.9782 38.2719 63.4756 38.4771 64 38.5563L89.325 42.15L71.1625 59.4625C70.7463 59.8656 70.4356 60.3649 70.2579 60.9164C70.0803 61.468 70.0411 62.0547 70.1437 62.625L74.4812 87.3562L51.4437 75.5187C50.9983 75.2891 50.5043 75.1692 50.0031 75.1692C49.5019 75.1692 49.0142 75.2891 48.5687 75.5187Z" fill="black"/>
</g>
<defs>
<clipPath id="clip0_1_2">
<rect width="100" height="100" fill="white"/>
</clipPath>
</defs>
</svg>
