<svg width="100" height="82" viewBox="0 0 100 82" fill="none" xmlns="http://www.w3.org/2000/svg">
<path d="M31.4125 81.2543C69.15 81.2543 89.7937 49.9856 89.7937 22.9168C89.7937 22.0418 89.7938 21.1543 89.7563 20.2793C93.7754 17.3699 97.2441 13.7678 100 9.64183C96.2457 11.2971 92.2673 12.3881 88.1938 12.8793C92.4846 10.3146 95.6983 6.27914 97.2375 1.52308C93.2062 3.91136 88.7938 5.58792 84.1937 6.47933C81.1011 3.18573 77.0088 1.00382 72.5505 0.271566C68.0923 -0.460685 63.517 0.297591 59.5334 2.42894C55.5497 4.56029 52.38 7.94576 50.5153 12.061C48.6506 16.1762 48.1949 20.7914 49.2188 25.1918C41.0609 24.7828 33.0801 22.6635 25.794 18.9715C18.5079 15.2794 12.0793 10.0971 6.925 3.76058C4.30838 8.27985 3.50984 13.6256 4.69154 18.7122C5.87324 23.7989 8.94659 28.2451 13.2875 31.1481C10.0346 31.0376 6.85326 30.1641 4 28.5981V28.8793C4.00561 33.6136 5.64567 38.2007 8.64296 41.8653C11.6403 45.53 15.8109 48.0473 20.45 48.9918C18.6891 49.4769 16.8702 49.7187 15.0438 49.7106C13.7561 49.7145 12.4711 49.5952 11.2062 49.3543C12.5174 53.4297 15.0705 56.9929 18.5078 59.5448C21.9451 62.0968 26.0946 63.5096 30.375 63.5856C23.1035 69.2968 14.1213 72.3944 4.875 72.3793C3.24575 72.3862 1.61764 72.2923 0 72.0981C9.38447 78.081 20.2831 81.2578 31.4125 81.2543Z" fill="black"/>
</svg>
