<svg width="100" height="64" viewBox="0 0 100 64" fill="none" xmlns="http://www.w3.org/2000/svg">
<path fill-rule="evenodd" clip-rule="evenodd" d="M0 13.25C0 9.93479 1.31696 6.75537 3.66117 4.41116C6.00537 2.06696 9.18479 0.75 12.5 0.75H59.375C62.4068 0.749643 65.3355 1.8512 67.6155 3.84955C69.8955 5.84789 71.3716 8.6068 71.7687 11.6125L91.2063 2.975C92.1577 2.55107 93.1999 2.37165 94.2384 2.45303C95.2768 2.53442 96.2784 2.87404 97.1521 3.44102C98.0259 4.00799 98.7441 4.78435 99.2414 5.69952C99.7388 6.6147 99.9996 7.63966 100 8.68125V55.3187C99.9991 56.3595 99.7383 57.3836 99.2413 58.298C98.7442 59.2125 98.0267 59.9883 97.1538 60.5551C96.2809 61.1219 95.2803 61.4618 94.2428 61.5438C93.2052 61.6259 92.1636 61.4476 91.2125 61.025L71.7687 52.3875C71.3716 55.3932 69.8955 58.1521 67.6155 60.1505C65.3355 62.1488 62.4068 63.2504 59.375 63.25H12.5C9.18479 63.25 6.00537 61.933 3.66117 59.5888C1.31696 57.2446 0 54.0652 0 50.75V13.25ZM71.875 45.5938L93.75 55.3187V8.68125L71.875 18.4062V45.5938ZM12.5 7C10.8424 7 9.25268 7.65848 8.08058 8.83058C6.90848 10.0027 6.25 11.5924 6.25 13.25V50.75C6.25 52.4076 6.90848 53.9973 8.08058 55.1694C9.25268 56.3415 10.8424 57 12.5 57H59.375C61.0326 57 62.6223 56.3415 63.7944 55.1694C64.9665 53.9973 65.625 52.4076 65.625 50.75V13.25C65.625 11.5924 64.9665 10.0027 63.7944 8.83058C62.6223 7.65848 61.0326 7 59.375 7H12.5Z" fill="black"/>
</svg>
